PathFileType	4	(X/Y/Z)	../Python\running\Running07\task.trc
DataRate	CameraRate	NumFrames	NumMarkers	Units	OrigDataRate	OrigDataStartFrame	OrigNumFrames
200.000000	200.000000	4	30	mm	200.000000	66	177
Frame#	Time	C7			RBAK			CLAV			STRN			RASI			LASI			PE01			RTH1			RTH2			RTH3			RTB2			RHEE			RD5M			RTOE			LTH2			LTH3			LTB2			LTB3			LHEE			LTOE			LD5M			LPSI			RPSI			RTB1			RTB3			T10			PE03			PE02			LTH1			LTB1			
		X1	Y1	Z1	X2	Y2	Z2	X3	Y3	Z3	X4	Y4	Z4	X5	Y5	Z5	X6	Y6	Z6	X7	Y7	Z7	X8	Y8	Z8	X9	Y9	Z9	X10	Y10	Z10	X11	Y11	Z11	X12	Y12	Z12	X13	Y13	Z13	X14	Y14	Z14	X15	Y15	Z15	X16	Y16	Z16	X17	Y17	Z17	X18	Y18	Z18	X19	Y19	Z19	X20	Y20	Z20	X21	Y21	Z21	X22	Y22	Z22	X23	Y23	Z23	X24	Y24	Z24	X25	Y25	Z25	X26	Y26	Z26	X27	Y27	Z27	X28	Y28	Z28	X29	Y29	Z29	X30	Y30	Z30	

67	0.33	-477.5851745605471	1342.227905273438	130.8794250488282	-542.7000122070315	1266.839599609375	227.1806488037111	-361.5914001464845	1241.088012695313	159.7546386718751	-326.2420043945314	1048.41796875	173.022201538086	-390.0433349609377	855.674926757813	279.909881591797	-401.5103149414065	843.778930664063	53.01457214355472	-567.5877685546877	956.7622070312505	185.2911224365235	-345.5222167968751	600.9417724609377	329.5213012695314	-288.6553039550782	548.5601806640627	309.8399963378907	-295.868133544922	608.436462402344	324.0791931152345	-357.8268432617189	313.2349243164064	313.801971435547	-483.802917480469	110.0129928588868	233.4122467041017	-357.2648315429689	62.53608703613284	324.4805908203126	-318.0839843750001	58.81659317016604	279.7080383300782	-578.4418945312502	552.3466796875002	43.15295410156251	-499.2323303222659	566.437927246094	36.99777221679689	-745.247253417969	249.2104949951173	77.84334564208987	-696.174743652344	253.9177093505861	79.46040344238284	-862.722290039063	122.5297241210938	135.8486480712891	-712.3250732421877	28.26514053344728	151.4751586914063	-749.5403442382815	19.03657913208009	97.13925170898443	-585.0297851562502	923.7595825195317	144.8558959960938	-580.8225708007815	924.1586914062505	229.8626403808595	-301.8796386718751	336.3787536621095	306.4588623046876	-341.3759765625001	266.7627258300782	301.847137451172	-540.8380126953127	1055.617919921875	161.6271057128907	-600.6970825195315	902.9795532226567	161.5264434814454	-599.3691406250002	904.4165039062505	212.3281555175782	-537.9255371093752	598.245544433594	28.96435737609865	-700.5515747070315	312.8972778320314	61.44662094116214	
68	0.335	-461.547058105469	1345.572998046875	131.7334594726563	-527.4807739257815	1269.665405273438	225.9010467529298	-345.4522705078126	1245.60498046875	161.8249664306641	-309.2214660644532	1052.8349609375	174.2035675048829	-372.811492919922	859.734252929688	279.3798828125001	-383.6994018554689	846.5631713867192	52.6865043640137	-549.6980590820315	960.112182617188	183.6376342773438	-328.0967102050782	605.217224121094	327.6257934570314	-271.401580810547	552.7287597656252	307.760711669922	-278.4088134765626	612.5866699218752	321.9982910156251	-331.8211669921876	312.4808349609376	313.8875122070314	-447.4884338378909	103.4610137939454	234.456024169922	-318.6666564941407	60.02935791015628	324.5727539062501	-279.7143859863282	57.97857666015628	279.4201049804689	-567.6601562500002	557.767272949219	44.03608703613283	-487.8698730468752	569.734313964844	38.21197891235353	-739.749206542969	256.126922607422	78.739616394043	-690.6087646484377	260.861785888672	79.26992034912112	-854.4948730468755	130.7498779296876	136.8087158203126	-711.8272094726565	27.83955955505373	151.4793243408204	-748.8862915039065	20.32912063598634	97.77695465087896	-567.326843261719	927.0045776367192	143.5768737792969	-563.3183593750002	927.8587036132817	228.5940399169923	-277.2636718750001	338.4101562500001	306.2785034179689	-313.0340270996095	266.9890441894532	302.0744934082032	-523.518493652344	1058.615478515625	159.4143371582032	-583.2537841796877	906.134155273438	160.7765197753907	-581.684509277344	908.3640136718755	211.5764160156251	-525.939147949219	602.5482177734377	29.77791213989259	-695.5196533203127	320.182342529297	62.62423324584964	
69	0.34	-445.446472167969	1348.853881835938	132.6215820312501	-512.145202636719	1272.400146484375	224.6831207275392	-329.3070678710939	1250.048950195313	163.8594512939454	-292.184051513672	1057.205688476563	175.3704223632813	-355.5353393554689	863.7053222656255	278.773406982422	-365.8574523925782	849.2563476562505	52.33217620849612	-531.6643676757815	963.4667968750005	182.0524444580079	-311.0608215332032	609.212585449219	325.6080627441407	-254.7234954833986	556.3833007812502	305.7227783203126	-261.3122558593751	616.277282714844	319.7876892089845	-305.9461669921876	311.7247009277345	313.9541015625001	-410.9846191406252	97.67033386230474	235.2210388183595	-280.1425170898439	57.90633010864261	324.371307373047	-241.4659118652345	57.53337478637698	278.8700256347657	-556.5650024414065	563.3643188476565	44.9973831176758	-476.3037109375002	573.0577392578127	39.31832504272462	-733.5693359375002	263.0940551757814	79.68568420410159	-684.3916015625002	267.916473388672	79.08450317382815	-845.3110961914067	139.0380554199219	137.9239959716797	-711.137145996094	27.55377769470216	151.5560607910157	-747.8577270507815	21.96907806396485	98.58576965332037	-549.5334472656252	930.3037719726567	142.3282012939454	-545.671325683594	931.5484008789067	227.3722076416017	-252.942596435547	340.3796691894532	306.0314331054689	-284.8529663085939	267.3619079589845	302.1940917968751	-506.1521911621096	1061.580688476563	157.2267608642579	-565.7254028320315	909.359741210938	160.0566101074219	-563.8777465820315	912.324340820313	210.8374481201173	-513.6702880859377	606.929382324219	30.56087303161623	-689.8979492187502	327.5947570800782	63.9245300292969	
70	0.345	-429.281677246094	1352.043823242188	133.5438385009766	-496.6943359375002	1275.015380859375	223.5320587158204	-313.1549072265626	1254.384033203125	165.8537902832032	-275.1340942382814	1061.512573242188	176.5216827392579	-338.2273864746095	867.5607910156255	278.0973510742189	-348.0090942382814	851.8115234375005	51.9657897949219	-513.5079345703127	966.8154296875005	180.5327453613282	-294.4247436523439	612.8944091796877	323.5206909179689	-238.5936737060548	559.5246582031252	303.7877197265626	-244.5984497070314	619.507263183594	317.4931945800782	-280.2398376464845	310.9957580566407	313.9937133789064	-374.3958740234376	92.70005035400393	235.6841888427736	-241.7765045166017	56.19783401489261	323.8657836914064	-203.4092712402345	57.51844024658206	278.0646972656251	-545.2078247070315	569.1107177734377	46.03564834594728	-464.6114501953127	576.4196777343752	40.22999191284181	-726.692810058594	270.034149169922	80.67328643798831	-677.5052490234377	274.988250732422	78.93044281005862	-835.2877807617192	147.3237304687501	139.1505126953126	-710.134460449219	27.521297454834	151.7290191650391	-746.325622558594	24.01864242553712	99.56451416015631	-531.662048339844	933.6412963867192	141.1066131591797	-527.9074707031252	935.2131347656255	226.1928558349611	-228.9417572021486	342.3018188476564	305.7264709472657	-256.8837280273439	267.9008789062501	302.2124633789064	-488.7521667480471	1064.494506835938	155.0835266113282	-548.1176757812502	912.641235351563	159.3547973632813	-545.9714965820315	916.279907226563	210.1006317138673	-501.1898498535159	611.3774414062502	31.29589843750001	-683.6354980468752	335.0296325683595	65.33294677734378	
